<?xml version="1.0" encoding="utf-8"?>
<!-- Generator: Adobe Illustrator 24.2.1, SVG Export Plug-In . SVG Version: 6.00 Build 0)  -->
<svg version="1.1" id="Слой_1" xmlns="http://www.w3.org/2000/svg" xmlns:xlink="http://www.w3.org/1999/xlink" x="0px" y="0px"
	 viewBox="0 0 24 15" style="enable-background:new 0 0 24 15;" xml:space="preserve">
<style type="text/css">
	.st0{fill:#00417d;}
</style>
<g>
	<path class="st0" d="M11.8,14.4h1.4c0,0,0.4-0.1,0.6-0.3c0.2-0.3,0.2-0.6,0.2-0.6s0-1.9,0.8-2.3c0.9-0.3,1.9,1.9,3.1,2.7
		c0.9,0.6,1.5,0.5,1.5,0.5l3.1-0.1c0,0,1.6-0.1,0.9-1.5c-0.1-0.1-0.4-1-2.3-2.8c-1.9-1.9-1.7-1.6,0.7-4.9c1.4-2,2-3.3,1.8-3.8
		C23.3,0.9,22.3,1,22.3,1h-3.5c0,0-0.3,0-0.5,0.1C18.1,1.2,18,1.6,18,1.6s-0.6,1.6-1.3,2.9c-1.6,2.8-2.2,3-2.4,2.8
		C13.8,6.8,14,5.6,14,4.8c0-2.7,0.4-3.9-0.8-4.1c-0.4-0.1-0.7-0.2-1.6-0.2c-1.2,0-2.3,0-2.9,0.4C8.3,1,8,1.6,8.2,1.6
		c0.2,0,0.8,0.2,1,0.5c0.4,0.5,0.3,1.7,0.3,1.7S9.7,6.9,9,7.4C8.5,7.6,7.9,7.1,6.5,4.5C5.8,3.2,5.3,1.8,5.3,1.8S5.2,1.6,5,1.4
		C4.8,1.2,4.5,1.1,4.5,1.1H1.3c0,0-0.5,0-0.7,0.3C0.4,1.6,0.6,2,0.6,2S3.2,8.4,6,11.7C8.7,14.6,11.8,14.4,11.8,14.4"/>
</g>
</svg>
